<!--?xml version="1.0" encoding="iso-8859-1"?-->
<!-- Generator: Adobe Illustrator 19.0.0, SVG Export Plug-In . SVG Version: 6.00 Build 0)  -->
<svg version="1.1" id="Layer_1" xmlns="http://www.w3.org/2000/svg" xmlns:xlink="http://www.w3.org/1999/xlink" x="0px" y="0px" viewBox="0 0 512.001 512.001" style="" xml:space="preserve">
<g>
	<path style="fill:#9BAAAB;" d="M123.044,88.47H62.999c-4.441,0-8.042,3.601-8.042,8.042v42.889c0,4.441,3.601,8.042,8.042,8.042
		h60.045c4.441,0,8.042-3.601,8.042-8.042V96.512C131.086,92.07,127.485,88.47,123.044,88.47z" class="ZJwnXhCi_0"></path>
	<path style="stroke:#9BAAAB;" d="M341.144,138.147l-12.867-81.489c-0.618-3.908-3.987-6.787-7.943-6.787H191.667
		c-3.957,0-7.327,2.879-7.943,6.787l-12.867,81.489c-0.367,2.324,0.301,4.69,1.829,6.478c1.528,1.787,3.761,2.818,6.114,2.818
		h154.401c2.351,0,4.586-1.029,6.114-2.818C340.843,142.837,341.511,140.47,341.144,138.147z" class="ZJwnXhCi_1"></path>
</g>
<path style="stroke:#687F82;" d="M191.667,49.87c-3.957,0-7.327,2.879-7.943,6.787l-12.867,81.489
	c-0.367,2.324,0.301,4.69,1.829,6.478c1.528,1.787,3.761,2.818,6.114,2.818H256V49.87C256,49.87,191.667,49.87,191.667,49.87z" class="ZJwnXhCi_2"></path>
<path style="stroke:#FD6A33;" d="M500.469,131.36H11.532c-4.441,0-8.042,3.601-8.042,8.042v364.558c0,4.441,3.601,8.042,8.042,8.042
	h488.936c4.441,0,8.042-3.601,8.042-8.042V139.401C508.51,134.959,504.91,131.36,500.469,131.36z" class="ZJwnXhCi_3"></path>
<path style="fill:#F0353D;" d="M11.532,131.36c-4.441,0-8.042,3.601-8.042,8.042v364.558c0,4.441,3.601,8.042,8.042,8.042H256
	V131.36C256,131.36,11.532,131.36,11.532,131.36z" class="ZJwnXhCi_4"></path>
<path style="fill:#FFBA7E;" d="M500.469,131.36H11.532c-4.441,0-8.042,3.601-8.042,8.042v98.109h505.02v-98.109
	C508.51,134.959,504.91,131.36,500.469,131.36z" class="ZJwnXhCi_5"></path>
<path style="stroke:#FF8C29;" d="M11.532,131.36c-4.441,0-8.042,3.601-8.042,8.042v98.109H256V131.36
	C256,131.36,11.532,131.36,11.532,131.36z" class="ZJwnXhCi_6"></path>
<path style="fill:#CDD4D5;" d="M157.355,380.117c-20.989,0-38.064,17.075-38.064,38.064s17.075,38.064,38.064,38.064
	s38.064-17.075,38.064-38.064S178.343,380.117,157.355,380.117z" class="ZJwnXhCi_7"></path>
<path style="stroke:#4ACFD9;" d="M256,191.404c-73.017,0-132.42,59.404-132.42,132.42s59.404,132.42,132.42,132.42
	s132.42-59.404,132.42-132.42S329.017,191.404,256,191.404z" class="ZJwnXhCi_8"></path>
<path style="stroke:#0295AA;" d="M123.58,323.825c0,73.017,59.404,132.42,132.42,132.42V191.404
	C182.984,191.404,123.58,250.807,123.58,323.825z" class="ZJwnXhCi_9"></path>
<path style="stroke:#9BAAAB;" d="M256,234.294c-49.368,0-89.531,40.164-89.531,89.531s40.164,89.531,89.531,89.531
	s89.531-40.164,89.531-89.531S305.368,234.294,256,234.294z" class="ZJwnXhCi_10"></path>
<path style="stroke:#365558;" d="M166.469,323.825c0,49.368,40.164,89.531,89.531,89.531V234.294
	C206.633,234.294,166.469,274.457,166.469,323.825z" class="ZJwnXhCi_11"></path>
<g>
	<path style="stroke:#FFFFFF;" d="M256,381.189c-4.441,0-8.042-3.601-8.042-8.042s3.601-8.042,8.042-8.042
		c11.248,0,21.769-4.464,29.626-12.568c3.091-3.189,8.182-3.267,11.371-0.176c3.189,3.091,3.267,8.182,0.176,11.371
		C286.261,374.989,271.639,381.189,256,381.189z" class="ZJwnXhCi_12"></path>
	<path style="stroke:#FFFFFF;" d="M303.626,344.735c-0.695,0-1.401-0.091-2.104-0.281c-4.288-1.16-6.823-5.576-5.664-9.862
		c0.944-3.491,1.423-7.114,1.423-10.768c0-22.762-18.518-41.281-41.281-41.281c-4.441,0-8.042-3.601-8.042-8.042
		c0-4.441,3.601-8.042,8.042-8.042c31.631,0,57.364,25.733,57.364,57.364c0,5.072-0.667,10.107-1.981,14.967
		C310.414,342.375,307.168,344.735,303.626,344.735z" class="ZJwnXhCi_13"></path>
	<path style="stroke:#FFFFFF;" d="M203.896,117.957L209.991,79.356L302.01,79.356L308.104,117.957Z" class="ZJwnXhCi_14"></path>
	<path style="stroke:#FFFFFF;" d="M453.29,469.112c-4.441,0-8.042-3.601-8.042-8.042V268.069c0-4.441,3.601-8.042,8.042-8.042
		s8.042,3.601,8.042,8.042V461.07C461.332,465.511,457.732,469.112,453.29,469.112z" class="ZJwnXhCi_15"></path>
	<path style="stroke:#FFFFFF;" d="M453.29,207.488c-4.441,0-8.042-3.601-8.042-8.042v-34.311c0-4.441,3.601-8.042,8.042-8.042
		s8.042,3.601,8.042,8.042v34.311C461.332,203.887,457.732,207.488,453.29,207.488z" class="ZJwnXhCi_16"></path>
</g>
<g>
	<path style="stroke:#F0353D;" d="M397.319,64.608H363.96c-4.441,0-8.042-3.601-8.042-8.042s3.601-8.042,8.042-8.042h33.359
		c4.441,0,8.042,3.601,8.042,8.042S401.76,64.608,397.319,64.608z" class="ZJwnXhCi_17"></path>
	<path style="stroke:#F0353D;" d="M375.874,113.132c-2.058,0-4.116-0.785-5.686-2.356l-21.229-21.229
		c-3.141-3.141-3.141-8.233,0-11.372c3.141-3.141,8.233-3.141,11.372,0l21.229,21.229c3.141,3.141,3.141,8.233,0,11.372
		C379.99,112.346,377.932,113.132,375.874,113.132z" class="ZJwnXhCi_18"></path>
	<path style="stroke:#F0353D;" d="M354.861,37.313c-2.059,0-4.116-0.785-5.686-2.356c-3.141-3.141-3.141-8.233,0-11.373l21.229-21.229
		c3.141-3.141,8.233-3.141,11.372,0c3.141,3.141,3.141,8.233,0,11.373l-21.229,21.229C358.977,36.527,356.919,37.313,354.861,37.313
		z" class="ZJwnXhCi_19"></path>
</g>
<g>
</g>
<g>
</g>
<g>
</g>
<g>
</g>
<g>
</g>
<g>
</g>
<g>
</g>
<g>
</g>
<g>
</g>
<g>
</g>
<g>
</g>
<g>
</g>
<g>
</g>
<g>
</g>
<g>
</g>
<style>.ZJwnXhCi_0{stroke-dasharray:257 259;stroke-dashoffset:258;animation:ZJwnXhCi_draw_0 4400ms ease-in-out 0ms infinite,ZJwnXhCi_fade 4400ms linear 0ms infinite;}.ZJwnXhCi_1{stroke-dasharray:499 501;stroke-dashoffset:500;animation:ZJwnXhCi_draw_1 4400ms ease-in-out 0ms infinite,ZJwnXhCi_fade 4400ms linear 0ms infinite;}.ZJwnXhCi_2{stroke-dasharray:347 349;stroke-dashoffset:348;animation:ZJwnXhCi_draw_2 4400ms ease-in-out 0ms infinite,ZJwnXhCi_fade 4400ms linear 0ms infinite;}.ZJwnXhCi_3{stroke-dasharray:1758 1760;stroke-dashoffset:1759;animation:ZJwnXhCi_draw_3 4400ms ease-in-out 0ms infinite,ZJwnXhCi_fade 4400ms linear 0ms infinite;}.ZJwnXhCi_4{stroke-dasharray:1260 1262;stroke-dashoffset:1261;animation:ZJwnXhCi_draw_4 4400ms ease-in-out 0ms infinite,ZJwnXhCi_fade 4400ms linear 0ms infinite;}.ZJwnXhCi_5{stroke-dasharray:1216 1218;stroke-dashoffset:1217;animation:ZJwnXhCi_draw_5 4400ms ease-in-out 0ms infinite,ZJwnXhCi_fade 4400ms linear 0ms infinite;}.ZJwnXhCi_6{stroke-dasharray:714 716;stroke-dashoffset:715;animation:ZJwnXhCi_draw_6 4400ms ease-in-out 0ms infinite,ZJwnXhCi_fade 4400ms linear 0ms infinite;}.ZJwnXhCi_7{stroke-dasharray:240 242;stroke-dashoffset:241;animation:ZJwnXhCi_draw_7 4400ms ease-in-out 0ms infinite,ZJwnXhCi_fade 4400ms linear 0ms infinite;}.ZJwnXhCi_8{stroke-dasharray:832 834;stroke-dashoffset:833;animation:ZJwnXhCi_draw_8 4400ms ease-in-out 0ms infinite,ZJwnXhCi_fade 4400ms linear 0ms infinite;}.ZJwnXhCi_9{stroke-dasharray:681 683;stroke-dashoffset:682;animation:ZJwnXhCi_draw_9 4400ms ease-in-out 0ms infinite,ZJwnXhCi_fade 4400ms linear 0ms infinite;}.ZJwnXhCi_10{stroke-dasharray:563 565;stroke-dashoffset:564;animation:ZJwnXhCi_draw_10 4400ms ease-in-out 0ms infinite,ZJwnXhCi_fade 4400ms linear 0ms infinite;}.ZJwnXhCi_11{stroke-dasharray:461 463;stroke-dashoffset:462;animation:ZJwnXhCi_draw_11 4400ms ease-in-out 0ms infinite,ZJwnXhCi_fade 4400ms linear 0ms infinite;}.ZJwnXhCi_12{stroke-dasharray:130 132;stroke-dashoffset:131;animation:ZJwnXhCi_draw_12 4400ms ease-in-out 0ms infinite,ZJwnXhCi_fade 4400ms linear 0ms infinite;}.ZJwnXhCi_13{stroke-dasharray:232 234;stroke-dashoffset:233;animation:ZJwnXhCi_draw_13 4400ms ease-in-out 0ms infinite,ZJwnXhCi_fade 4400ms linear 0ms infinite;}.ZJwnXhCi_14{stroke-dasharray:275 277;stroke-dashoffset:276;animation:ZJwnXhCi_draw_14 4400ms ease-in-out 0ms infinite,ZJwnXhCi_fade 4400ms linear 0ms infinite;}.ZJwnXhCi_15{stroke-dasharray:437 439;stroke-dashoffset:438;animation:ZJwnXhCi_draw_15 4400ms ease-in-out 0ms infinite,ZJwnXhCi_fade 4400ms linear 0ms infinite;}.ZJwnXhCi_16{stroke-dasharray:120 122;stroke-dashoffset:121;animation:ZJwnXhCi_draw_16 4400ms ease-in-out 0ms infinite,ZJwnXhCi_fade 4400ms linear 0ms infinite;}.ZJwnXhCi_17{stroke-dasharray:118 120;stroke-dashoffset:119;animation:ZJwnXhCi_draw_17 4400ms ease-in-out 0ms infinite,ZJwnXhCi_fade 4400ms linear 0ms infinite;}.ZJwnXhCi_18{stroke-dasharray:111 113;stroke-dashoffset:112;animation:ZJwnXhCi_draw_18 4400ms ease-in-out 0ms infinite,ZJwnXhCi_fade 4400ms linear 0ms infinite;}.ZJwnXhCi_19{stroke-dasharray:111 113;stroke-dashoffset:112;animation:ZJwnXhCi_draw_19 4400ms ease-in-out 0ms infinite,ZJwnXhCi_fade 4400ms linear 0ms infinite;}@keyframes ZJwnXhCi_draw{100%{stroke-dashoffset:0;}}@keyframes ZJwnXhCi_fade{0%{stroke-opacity:1;}95.45454545454545%{stroke-opacity:1;}100%{stroke-opacity:0;}}@keyframes ZJwnXhCi_draw_0{4.545454545454546%{stroke-dashoffset: 258}34.84848484848485%{ stroke-dashoffset: 0;}100%{ stroke-dashoffset: 0;}}@keyframes ZJwnXhCi_draw_1{5.342902711323764%{stroke-dashoffset: 500}35.64593301435407%{ stroke-dashoffset: 0;}100%{ stroke-dashoffset: 0;}}@keyframes ZJwnXhCi_draw_2{6.140350877192983%{stroke-dashoffset: 348}36.44338118022329%{ stroke-dashoffset: 0;}100%{ stroke-dashoffset: 0;}}@keyframes ZJwnXhCi_draw_3{6.937799043062201%{stroke-dashoffset: 1759}37.24082934609251%{ stroke-dashoffset: 0;}100%{ stroke-dashoffset: 0;}}@keyframes ZJwnXhCi_draw_4{7.73524720893142%{stroke-dashoffset: 1261}38.038277511961724%{ stroke-dashoffset: 0;}100%{ stroke-dashoffset: 0;}}@keyframes ZJwnXhCi_draw_5{8.532695374800637%{stroke-dashoffset: 1217}38.83572567783094%{ stroke-dashoffset: 0;}100%{ stroke-dashoffset: 0;}}@keyframes ZJwnXhCi_draw_6{9.330143540669855%{stroke-dashoffset: 715}39.63317384370016%{ stroke-dashoffset: 0;}100%{ stroke-dashoffset: 0;}}@keyframes ZJwnXhCi_draw_7{10.127591706539073%{stroke-dashoffset: 241}40.430622009569376%{ stroke-dashoffset: 0;}100%{ stroke-dashoffset: 0;}}@keyframes ZJwnXhCi_draw_8{10.925039872408293%{stroke-dashoffset: 833}41.2280701754386%{ stroke-dashoffset: 0;}100%{ stroke-dashoffset: 0;}}@keyframes ZJwnXhCi_draw_9{11.72248803827751%{stroke-dashoffset: 682}42.025518341307816%{ stroke-dashoffset: 0;}100%{ stroke-dashoffset: 0;}}@keyframes ZJwnXhCi_draw_10{12.519936204146731%{stroke-dashoffset: 564}42.822966507177036%{ stroke-dashoffset: 0;}100%{ stroke-dashoffset: 0;}}@keyframes ZJwnXhCi_draw_11{13.317384370015947%{stroke-dashoffset: 462}43.62041467304626%{ stroke-dashoffset: 0;}100%{ stroke-dashoffset: 0;}}@keyframes ZJwnXhCi_draw_12{14.114832535885165%{stroke-dashoffset: 131}44.417862838915475%{ stroke-dashoffset: 0;}100%{ stroke-dashoffset: 0;}}@keyframes ZJwnXhCi_draw_13{14.912280701754385%{stroke-dashoffset: 233}45.215311004784695%{ stroke-dashoffset: 0;}100%{ stroke-dashoffset: 0;}}@keyframes ZJwnXhCi_draw_14{15.709728867623602%{stroke-dashoffset: 276}46.01275917065391%{ stroke-dashoffset: 0;}100%{ stroke-dashoffset: 0;}}@keyframes ZJwnXhCi_draw_15{16.507177033492823%{stroke-dashoffset: 438}46.81020733652313%{ stroke-dashoffset: 0;}100%{ stroke-dashoffset: 0;}}@keyframes ZJwnXhCi_draw_16{17.30462519936204%{stroke-dashoffset: 121}47.60765550239235%{ stroke-dashoffset: 0;}100%{ stroke-dashoffset: 0;}}@keyframes ZJwnXhCi_draw_17{18.10207336523126%{stroke-dashoffset: 119}48.40510366826155%{ stroke-dashoffset: 0;}100%{ stroke-dashoffset: 0;}}@keyframes ZJwnXhCi_draw_18{18.899521531100476%{stroke-dashoffset: 112}49.20255183413078%{ stroke-dashoffset: 0;}100%{ stroke-dashoffset: 0;}}@keyframes ZJwnXhCi_draw_19{19.696969696969695%{stroke-dashoffset: 112}50%{ stroke-dashoffset: 0;}100%{ stroke-dashoffset: 0;}}</style></svg>
